<svg xmlns="http://www.w3.org/2000/svg" viewBox="0 0 450.391 450.391"><defs/><path d="M143.673 350.322c-25.969 0-47.02 21.052-47.02 47.02 0 25.969 21.052 47.02 47.02 47.02 25.969 0 47.02-21.052 47.02-47.02.001-25.968-21.051-47.02-47.02-47.02zm0 73.143c-14.427 0-26.122-11.695-26.122-26.122s11.695-26.122 26.122-26.122 26.122 11.695 26.122 26.122c.001 14.427-11.695 26.122-26.122 26.122zM342.204 350.322c-25.969 0-47.02 21.052-47.02 47.02 0 25.969 21.052 47.02 47.02 47.02s47.02-21.052 47.02-47.02c0-25.968-21.051-47.02-47.02-47.02zm0 73.143c-14.427 0-26.122-11.695-26.122-26.122s11.695-26.122 26.122-26.122 26.122 11.695 26.122 26.122c.001 14.427-11.695 26.122-26.122 26.122zM448.261 76.037a13.064 13.064 0 00-8.359-4.18L99.788 67.155 90.384 38.42C83.759 19.211 65.771 6.243 45.453 6.028H10.449C4.678 6.028 0 10.706 0 16.477s4.678 10.449 10.449 10.449h35.004a27.17 27.17 0 0125.078 18.286l66.351 200.098-5.224 12.016a50.154 50.154 0 004.702 45.453 48.588 48.588 0 0039.184 21.943h203.233c5.771 0 10.449-4.678 10.449-10.449s-4.678-10.449-10.449-10.449H175.543a26.646 26.646 0 01-21.943-12.539 28.733 28.733 0 01-2.612-25.078l4.18-9.404 219.951-22.988c24.16-2.661 44.034-20.233 49.633-43.886L449.83 84.917a8.882 8.882 0 00-1.569-8.88zm-43.885 109.191c-3.392 15.226-16.319 26.457-31.869 27.69l-217.339 22.465-48.588-147.33 320.261 4.702-22.465 92.473z"/></svg>